<?xml version="1.0" encoding="UTF-8"?>
<svg xmlns="http://www.w3.org/2000/svg" xmlns:xlink="http://www.w3.org/1999/xlink" width="725px" height="px" viewBox="0 0 725 500" version="1.1">
<g id="surface1">
<path style=" stroke:none;fill-rule:nonzero;fill:rgb(0%,0%,0%);fill-opacity:1;" d="M 473.945312 326.703125 L 326.433594 70.34375 L 432.40625 9.476562 L 615.832031 326.703125 L 473.945312 326.703125 "/>
<path style=" stroke:none;fill-rule:nonzero;fill:rgb(0%,0%,0%);fill-opacity:1;" d="M 81.039062 290.785156 L 187.011719 229.507812 L 243.082031 326.703125 L 101.601562 326.703125 L 81.039062 290.785156 "/>
<path style=" stroke:none;fill-rule:nonzero;fill:rgb(0%,0%,0%);fill-opacity:1;" d="M 289.007812 490.253906 L 319.167969 490.253906 L 319.167969 368.242188 L 289.007812 368.242188 Z M 289.007812 490.253906 "/>
<path style=" stroke:none;fill-rule:nonzero;fill:rgb(0%,0%,0%);fill-opacity:1;" d="M 666.96875 493.132812 C 633.242188 493.132812 612.953125 475.722656 611.859375 451.183594 L 643.664062 451.183594 C 643.664062 458.859375 648.460938 470.101562 669.023438 470.511719 C 682.734375 470.511719 689.175781 462.425781 689.175781 456.394531 C 688.355469 446.796875 676.289062 445.972656 663.402344 443.917969 C 650.515625 441.863281 639.550781 439.53125 631.597656 435.417969 C 621.453125 430.207031 614.597656 418.96875 614.597656 406.082031 C 614.597656 384.28125 633.519531 367.007812 665.050781 367.007812 C 695.621094 367.007812 714.949219 383.050781 717.007812 406.902344 L 686.296875 406.902344 C 686.023438 400.460938 684.789062 390.316406 666.695312 390.316406 C 654.492188 390.316406 646.40625 392.78125 645.71875 401.28125 C 645.71875 413.757812 671.082031 412.933594 690.820312 418.144531 C 709.742188 422.941406 721.804688 434.734375 721.804688 451.183594 C 721.804688 481.480469 697.265625 493.132812 666.96875 493.132812 "/>
<path style=" stroke:none;fill-rule:nonzero;fill:rgb(0%,0%,0%);fill-opacity:1;" d="M 205.246094 181.9375 L 311.214844 120.792969 L 430.074219 326.703125 L 319.167969 326.703125 L 319.167969 356.863281 L 289.007812 356.863281 L 289.007812 326.566406 L 205.246094 181.9375 "/>
<path style=" stroke:none;fill-rule:nonzero;fill:rgb(0%,0%,0%);fill-opacity:1;" d="M 207.984375 493.132812 C 172.890625 493.132812 144.375 464.480469 144.375 429.796875 C 144.375 394.703125 172.890625 367.007812 207.984375 367.007812 C 221.285156 367.007812 233.347656 370.574219 243.902344 377.839844 L 243.902344 326.703125 L 274.0625 326.703125 L 274.0625 490.253906 L 243.902344 490.253906 L 243.902344 482.167969 C 233.347656 489.019531 221.285156 493.132812 207.984375 493.132812 Z M 173.300781 429.796875 C 173.300781 448.714844 189.480469 464.480469 208.808594 464.480469 C 227.726562 464.480469 243.902344 448.714844 243.902344 429.796875 C 243.902344 410.878906 227.726562 394.703125 208.808594 394.703125 C 189.480469 394.703125 173.300781 410.878906 173.300781 429.796875 "/>
<path style=" stroke:none;fill-rule:nonzero;fill:rgb(0%,0%,0%);fill-opacity:1;" d="M 430.898438 326.703125 L 460.644531 326.703125 L 460.644531 490.253906 L 430.898438 490.253906 L 430.898438 482.167969 C 420.753906 489.019531 408.277344 493.132812 394.566406 493.132812 C 359.882812 493.132812 331.367188 464.480469 331.367188 429.796875 C 331.367188 394.703125 359.882812 367.007812 394.566406 367.007812 C 408.277344 367.007812 420.339844 370.574219 430.898438 377.839844 Z M 360.707031 429.796875 C 360.707031 448.714844 376.882812 464.480469 395.390625 464.480469 C 414.71875 464.480469 430.898438 448.714844 430.898438 429.796875 C 430.898438 410.878906 414.71875 394.703125 395.390625 394.703125 C 376.882812 394.703125 360.707031 410.878906 360.707031 429.796875 "/>
<path style=" stroke:none;fill-rule:nonzero;fill:rgb(0%,0%,0%);fill-opacity:1;" d="M 533.988281 493.132812 C 499.441406 493.132812 470.789062 464.480469 470.789062 429.796875 C 470.789062 394.703125 499.441406 367.007812 533.988281 367.007812 C 547.289062 367.007812 559.761719 370.574219 569.90625 377.839844 L 569.90625 368.105469 L 600.066406 368.105469 L 600.066406 490.253906 L 569.90625 490.253906 L 569.90625 482.167969 C 559.761719 489.019531 547.699219 493.132812 533.988281 493.132812 Z M 500.128906 429.796875 C 500.128906 448.714844 516.304688 464.480469 535.222656 464.480469 C 554.140625 464.480469 569.90625 448.714844 569.90625 429.796875 C 569.90625 410.878906 554.140625 394.703125 535.222656 394.703125 C 516.304688 394.703125 500.128906 410.878906 500.128906 429.796875 "/>
<path style=" stroke:none;fill-rule:nonzero;fill:rgb(0%,0%,0%);fill-opacity:1;" d="M 33.46875 429.796875 C 33.46875 448.714844 49.644531 464.480469 68.5625 464.480469 C 87.894531 464.480469 104.070312 448.714844 104.070312 429.796875 C 104.070312 410.878906 87.894531 394.703125 68.5625 394.703125 C 49.644531 394.703125 33.46875 410.878906 33.46875 429.796875 Z M 67.742188 493.132812 C 33.058594 493.132812 4.40625 464.480469 4.40625 429.796875 C 4.40625 394.703125 33.058594 367.007812 67.742188 367.007812 C 81.039062 367.007812 93.515625 370.574219 104.070312 377.839844 L 104.070312 368.105469 L 133.820312 368.105469 L 133.820312 490.253906 L 104.070312 490.253906 L 104.070312 482.167969 C 93.925781 489.019531 81.449219 493.132812 67.742188 493.132812 "/>
</g>
</svg>
