<?xml version="1.0" encoding="UTF-8"?>
<svg xmlns="http://www.w3.org/2000/svg" xmlns:xlink="http://www.w3.org/1999/xlink" width="725px" height="px" viewBox="0 0 725 471" version="1.1">
<defs>
<clipPath id="clip1">
  <path d="M 0.363281 0 L 724.636719 0 L 724.636719 321 L 0.363281 321 Z M 0.363281 0 "/>
</clipPath>
<clipPath id="clip2">
  <path d="M 357 341 L 463 341 L 463 470.496094 L 357 470.496094 Z M 357 341 "/>
</clipPath>
<clipPath id="clip3">
  <path d="M 538 372 L 648 372 L 648 470.496094 L 538 470.496094 Z M 538 372 "/>
</clipPath>
<clipPath id="clip4">
  <path d="M 77 374 L 175 374 L 175 470.496094 L 77 470.496094 Z M 77 374 "/>
</clipPath>
</defs>
<g id="surface1">
<g clip-path="url(#clip1)" clip-rule="nonzero">
<path style=" stroke:none;fill-rule:nonzero;fill:rgb(0%,0%,0%);fill-opacity:1;" d="M 352.804688 43.835938 L 80.890625 157.625 C 77.054688 159.242188 77.054688 161.835938 80.890625 163.449219 L 352.804688 277.308594 C 358.136719 279.5 366.847656 279.5 372.171875 277.308594 L 644.089844 163.449219 C 647.941406 161.835938 647.941406 159.242188 644.089844 157.625 L 372.171875 43.835938 C 366.847656 41.601562 358.136719 41.601562 352.804688 43.835938 M 714.171875 144.300781 C 720.386719 147.058594 724.640625 153.28125 724.640625 160.550781 C 724.640625 167.816406 720.300781 174.027344 714.0625 176.792969 L 375.578125 318.496094 C 368.390625 321.484375 356.617188 321.484375 349.425781 318.496094 L 10.914062 176.792969 C 4.664062 174.027344 0.363281 167.816406 0.363281 160.550781 C 0.363281 153.28125 4.664062 147.019531 10.914062 144.261719 L 349.425781 2.617188 C 356.617188 -0.386719 368.390625 -0.386719 375.578125 2.617188 Z M 530.664062 152.765625 C 533.640625 154.097656 535.6875 157.050781 535.6875 160.550781 C 535.6875 164.023438 533.617188 166.96875 530.664062 168.296875 L 368.796875 236.0625 C 365.328125 237.535156 359.699219 237.535156 356.234375 236.0625 L 194.359375 168.296875 C 191.40625 166.96875 189.289062 164.023438 189.289062 160.550781 C 189.289062 157.050781 191.40625 154.097656 194.359375 152.753906 L 356.234375 84.996094 C 359.699219 83.566406 365.328125 83.566406 368.796875 84.996094 Z M 359.65625 194.898438 C 361.195312 195.511719 363.789062 195.511719 365.328125 194.898438 L 445.339844 161.386719 C 446.457031 160.914062 446.457031 160.144531 445.339844 159.660156 L 365.328125 126.210938 C 363.789062 125.582031 361.195312 125.582031 359.65625 126.210938 L 279.683594 159.660156 C 278.550781 160.144531 278.550781 160.914062 279.683594 161.386719 Z M 359.65625 194.898438 "/>
</g>
<path style=" stroke:none;fill-rule:nonzero;fill:rgb(0%,0%,0%);fill-opacity:1;" d="M 499.5625 392.050781 L 499.195312 392.050781 L 499.195312 374.792969 L 469.792969 374.792969 L 469.792969 468.375 L 502.09375 468.375 L 502.09375 428.84375 C 502.09375 410.511719 510.527344 399.582031 525.585938 399.582031 C 529.339844 399.582031 532.867188 399.582031 536.441406 400.609375 L 536.441406 373.429688 C 533.617188 373.003906 530.347656 372.617188 527.171875 372.617188 C 513.238281 372.617188 505.144531 380.179688 499.5625 392.050781 "/>
<g clip-path="url(#clip2)" clip-rule="nonzero">
<path style=" stroke:none;fill-rule:nonzero;fill:rgb(0%,0%,0%);fill-opacity:1;" d="M 422.222656 372.5625 C 409.320312 372.5625 398.378906 376.332031 390.140625 386.726562 L 389.777344 386.726562 L 389.777344 341.636719 L 357.300781 341.636719 L 357.300781 468.265625 L 387.050781 468.265625 L 387.050781 451.578125 L 387.414062 451.578125 C 391.546875 462.03125 404.667969 470.445312 419.570312 470.445312 C 447.351562 470.445312 462.253906 447.453125 462.253906 419.800781 C 462.253906 397.140625 448.054688 372.5625 422.222656 372.5625 M 409.441406 447.011719 C 398.1875 447.011719 388.808594 436.320312 388.808594 422.027344 C 388.808594 407.367188 397.046875 396.484375 409.441406 396.484375 C 422.585938 396.484375 429.929688 407.734375 429.929688 420.726562 C 429.929688 436.320312 422.199219 447.011719 409.441406 447.011719 "/>
</g>
<path style=" stroke:none;fill-rule:nonzero;fill:rgb(0%,0%,0%);fill-opacity:1;" d="M 312.949219 372.617188 C 299.699219 372.617188 287.304688 378.007812 279.769531 390.601562 C 274.761719 378.371094 263.800781 372.617188 250.511719 372.617188 C 235.824219 372.617188 222.898438 378.523438 216.425781 392.050781 L 216.105469 392.050781 L 216.105469 374.792969 L 186.675781 374.792969 L 186.675781 468.375 L 218.976562 468.375 L 218.976562 428.84375 C 218.976562 408.734375 225.761719 399.582031 237.261719 399.582031 C 246.394531 399.582031 250.1875 407.496094 250.1875 418.0625 L 250.1875 468.375 L 282.488281 468.375 L 282.488281 428.84375 C 282.488281 408.734375 289.316406 399.582031 300.765625 399.582031 C 309.933594 399.582031 313.691406 407.496094 313.691406 418.0625 L 313.691406 468.375 L 346 468.375 L 346 413.21875 C 346 387.890625 339.875 372.617188 312.949219 372.617188 "/>
<g clip-path="url(#clip3)" clip-rule="nonzero">
<path style=" stroke:none;fill-rule:nonzero;fill:rgb(0%,0%,0%);fill-opacity:1;" d="M 592.695312 372.617188 C 561.8125 372.617188 538.304688 390.601562 538.304688 421.664062 C 538.304688 452.585938 561.8125 470.5 592.695312 470.5 C 623.519531 470.5 647.023438 452.585938 647.023438 421.664062 C 647.023438 390.601562 623.519531 372.617188 592.695312 372.617188 M 569.746094 421.925781 C 569.746094 405.617188 578.894531 393.773438 592.355469 393.773438 C 606.714844 393.773438 614.808594 406.039062 614.808594 420.421875 C 614.808594 437.757812 606.289062 449.414062 592.355469 449.414062 C 580.132812 449.414062 569.746094 437.734375 569.746094 421.925781 "/>
</g>
<g clip-path="url(#clip4)" clip-rule="nonzero">
<path style=" stroke:none;fill-rule:nonzero;fill:rgb(0%,0%,0%);fill-opacity:1;" d="M 77.933594 374.792969 L 77.933594 427.753906 C 77.933594 457.742188 99.015625 470.496094 126.3125 470.496094 C 153.5625 470.496094 174.667969 457.742188 174.667969 427.753906 L 174.667969 374.792969 L 142.410156 374.792969 L 142.410156 425.136719 C 142.410156 436.667969 139.5625 447.011719 126.3125 447.011719 C 113 447.011719 110.152344 436.667969 110.152344 425.136719 L 110.152344 374.792969 Z M 77.933594 374.792969 "/>
</g>
</g>
</svg>
